HIERARCHY
ROOT Hips
{
  OFFSET 5.80788e-005 67.184 3.4734
  CHANNELS 6 Xposition Yposition Zposition Zrotation Xrotation Yrotation
  JOINT Chest
  {
    OFFSET 0 8.7983 -4.7612
    CHANNELS 3 Zrotation Xrotation Yrotation
    JOINT Chest2
    {
      OFFSET 0 8.0291 0.4195
      CHANNELS 3 Zrotation Xrotation Yrotation
      JOINT Chest3
      {
        OFFSET 0 9.9351 -2.2114
        CHANNELS 3 Zrotation Xrotation Yrotation
        JOINT Neck
        {
          OFFSET 0 22.3885 -0.4656
          CHANNELS 3 Zrotation Xrotation Yrotation
          JOINT Head
          {
            OFFSET -0.0001 12.643 3.4389
            CHANNELS 3 Zrotation Xrotation Yrotation
            End Site
            {
              OFFSET 0.0001 17.6655 0.5274
            }
          }
        }
        JOINT LeftCollar
        {
          OFFSET 2.2603 21.606 7.4023
          CHANNELS 3 Zrotation Xrotation Yrotation
          JOINT LeftShoulder
          {
            OFFSET 13.5163 -1.1332 -5.0146
            CHANNELS 3 Zrotation Xrotation Yrotation
            JOINT LeftElbow
            {
              OFFSET -0.0995 -28.05 -0.2431
              CHANNELS 3 Zrotation Xrotation Yrotation
              JOINT LeftWrist
              {
                OFFSET 0.0679 -23.3996 -0.1402
                CHANNELS 3 Zrotation Xrotation Yrotation
                JOINT LeftFinger1
                {
                  OFFSET 0.7932 -9.069 2.5189
                  CHANNELS 3 Zrotation Xrotation Yrotation
                  JOINT LeftFinger11
                  {
                    OFFSET -0.8272 -3.3923 0.5977
                    CHANNELS 3 Zrotation Xrotation Yrotation
                    JOINT LeftFinger12
                    {
                      OFFSET -0.5649 -2.3158 0.4082
                      CHANNELS 3 Zrotation Xrotation Yrotation
                      End Site
                      {
                        OFFSET -0.4919 -1.6479 0.2673
                      }
                    }
                  }
                }
                JOINT LeftFinger2
                {
                  OFFSET 0.9159 -9.2044 0.2193
                  CHANNELS 3 Zrotation Xrotation Yrotation
                  JOINT LeftFinger21
                  {
                    OFFSET 0.0117 -4.1944 -0.0248
                    CHANNELS 3 Zrotation Xrotation Yrotation
                    JOINT LeftFinger22
                    {
                      OFFSET 0.0071 -2.3249 -0.0142
                      CHANNELS 3 Zrotation Xrotation Yrotation
                      End Site
                      {
                        OFFSET -0.1475 -2.0882 0.0028
                      }
                    }
                  }
                }
                JOINT LeftFinger3
                {
                  OFFSET 0.6113 -8.7231 -2.0637
                  CHANNELS 3 Zrotation Xrotation Yrotation
                  JOINT LeftFinger31
                  {
                    OFFSET -0.1927 -3.8059 -0.2383
                    CHANNELS 3 Zrotation Xrotation Yrotation
                    JOINT LeftFinger32
                    {
                      OFFSET -0.1091 -2.1688 -0.1362
                      CHANNELS 3 Zrotation Xrotation Yrotation
                      End Site
                      {
                        OFFSET -0.2358 -1.9176 -0.0906
                      }
                    }
                  }
                }
                JOINT LeftFinger4
                {
                  OFFSET -0.6151 -8.0947 -3.5641
                  CHANNELS 3 Zrotation Xrotation Yrotation
                  JOINT LeftFinger41
                  {
                    OFFSET -0.4882 -2.341 -0.6462
                    CHANNELS 3 Zrotation Xrotation Yrotation
                    JOINT LeftFinger42
                    {
                      OFFSET -0.3575 -1.7167 -0.4742
                      CHANNELS 3 Zrotation Xrotation Yrotation
                      End Site
                      {
                        OFFSET -0.4187 -1.5237 -0.3496
                      }
                    }
                  }
                }
                JOINT LeftFinger0
                {
                  OFFSET -1.42 -1.8761 1.4223
                  CHANNELS 3 Zrotation Xrotation Yrotation
                  JOINT LeftFinger01
                  {
                    OFFSET -1.1471 -3.4929 2.6334
                    CHANNELS 3 Zrotation Xrotation Yrotation
                    JOINT LeftFinger02
                    {
                      OFFSET -0.823 -2.3 1.6571
                      CHANNELS 3 Zrotation Xrotation Yrotation
                      End Site
                      {
                        OFFSET -0.5822 -1.6914 1.1582
                      }
                    }
                  }
                }
              }
            }
          }
        }
        JOINT RightCollar
        {
          OFFSET -2.2603 21.606 7.4023
          CHANNELS 3 Zrotation Xrotation Yrotation
          JOINT RightShoulder
          {
            OFFSET -13.5187 -1.1334 -5.0155
            CHANNELS 3 Zrotation Xrotation Yrotation
            JOINT RightElbow
            {
              OFFSET 0.0994 -28.0499 -0.2431
              CHANNELS 3 Zrotation Xrotation Yrotation
              JOINT RightWrist
              {
                OFFSET -0.0679 -23.3996 -0.1402
                CHANNELS 3 Zrotation Xrotation Yrotation
                JOINT RightFinger1
                {
                  OFFSET -0.7932 -9.0691 2.5189
                  CHANNELS 3 Zrotation Xrotation Yrotation
                  JOINT RightFinger11
                  {
                    OFFSET 0.8272 -3.3923 0.5977
                    CHANNELS 3 Zrotation Xrotation Yrotation
                    JOINT RightFinger12
                    {
                      OFFSET 0.565 -2.3158 0.4082
                      CHANNELS 3 Zrotation Xrotation Yrotation
                      End Site
                      {
                        OFFSET 0.4919 -1.6479 0.2673
                      }
                    }
                  }
                }
                JOINT RightFinger2
                {
                  OFFSET -0.916 -9.2044 0.2193
                  CHANNELS 3 Zrotation Xrotation Yrotation
                  JOINT RightFinger21
                  {
                    OFFSET -0.0117 -4.1944 -0.0248
                    CHANNELS 3 Zrotation Xrotation Yrotation
                    JOINT RightFinger22
                    {
                      OFFSET -0.0071 -2.3249 -0.0142
                      CHANNELS 3 Zrotation Xrotation Yrotation
                      End Site
                      {
                        OFFSET 0.1475 -2.0882 0.0028
                      }
                    }
                  }
                }
                JOINT RightFinger3
                {
                  OFFSET -0.6113 -8.7231 -2.0637
                  CHANNELS 3 Zrotation Xrotation Yrotation
                  JOINT RightFinger31
                  {
                    OFFSET 0.1927 -3.8059 -0.2383
                    CHANNELS 3 Zrotation Xrotation Yrotation
                    JOINT RightFinger32
                    {
                      OFFSET 0.1091 -2.1688 -0.1362
                      CHANNELS 3 Zrotation Xrotation Yrotation
                      End Site
                      {
                        OFFSET 0.2358 -1.9176 -0.0906
                      }
                    }
                  }
                }
                JOINT RightFinger4
                {
                  OFFSET 0.6151 -8.0947 -3.564
                  CHANNELS 3 Zrotation Xrotation Yrotation
                  JOINT RightFinger41
                  {
                    OFFSET 0.4882 -2.341 -0.6462
                    CHANNELS 3 Zrotation Xrotation Yrotation
                    JOINT RightFinger42
                    {
                      OFFSET 0.3574 -1.7166 -0.4742
                      CHANNELS 3 Zrotation Xrotation Yrotation
                      End Site
                      {
                        OFFSET 0.4187 -1.5237 -0.3496
                      }
                    }
                  }
                }
                JOINT RightFinger0
                {
                  OFFSET 1.4199 -1.8761 1.4221
                  CHANNELS 3 Zrotation Xrotation Yrotation
                  JOINT RightFinger01
                  {
                    OFFSET 1.1472 -3.4929 2.6336
                    CHANNELS 3 Zrotation Xrotation Yrotation
                    JOINT RightFinger02
                    {
                      OFFSET 0.8229 -2.3 1.6571
                      CHANNELS 3 Zrotation Xrotation Yrotation
                      End Site
                      {
                        OFFSET 0.5822 -1.6914 1.1582
                      }
                    }
                  }
                }
              }
            }
          }
        }
      }
    }
  }
  JOINT RightHip
  {
    OFFSET -9.412 3.9771 -0.7758
    CHANNELS 3 Zrotation Xrotation Yrotation
    JOINT RightKnee
    {
      OFFSET -0.7531 -40.938 0
      CHANNELS 3 Zrotation Xrotation Yrotation
      JOINT RightAnkle
      {
        OFFSET 0 -40.1986 0
        CHANNELS 3 Zrotation Xrotation Yrotation
        JOINT RightToe
        {
          OFFSET 0 -4.4182 9.239
          CHANNELS 3 Zrotation Xrotation Yrotation
          End Site
          {
            OFFSET 0 0 6.1981
          }
        }
      }
    }
  }
  JOINT LeftHip
  {
    OFFSET 9.4119 3.9773 -0.7758
    CHANNELS 3 Zrotation Xrotation Yrotation
    JOINT LeftKnee
    {
      OFFSET 0.7532 -40.9383 0
      CHANNELS 3 Zrotation Xrotation Yrotation
      JOINT LeftAnkle
      {
        OFFSET 0 -40.1986 0
        CHANNELS 3 Zrotation Xrotation Yrotation
        JOINT LeftToe
        {
          OFFSET 0 -4.4182 9.239
          CHANNELS 3 Zrotation Xrotation Yrotation
          End Site
          {
            OFFSET 0 0 6.1981
          }
        }
      }
    }
  }
}
MOTION
Frames:	4
Frame Time:	0.0333333
5.80788e-005 67.184 3.4734 0 0 -0 0 0 -0 0 0 -0 0 0 -0 0 0 -0 0 0 -0 0 0 -12.5014 88.1196 14.2451 10.6914 -0.00160068 -0.00239207 0.000740045 -8.4365e-005 7.00714e-005 -9.52055e-007 9.93923e-017 -1.98785e-016 -1.59028e-015 9.93923e-017 -5.96354e-016 -1.59028e-015 -9.93923e-017 -5.96354e-016 -1.59028e-015 9.93923e-017 -1.98785e-016 -1.59028e-015 -0.0128176 0.00232552 8.52707e-005 9.93923e-017 5.96354e-016 -0 9.93923e-017 -1.98785e-016 -1.59028e-015 -0.0160551 0.00299681 0.000857156 -2.48481e-016 0 3.18055e-015 9.93923e-017 -1.98785e-016 -1.59028e-015 -0.0125865 0.0031206 0.00282719 0 1.98785e-016 -0 9.93923e-017 -1.98785e-016 -1.59028e-015 9.93923e-017 -5.96354e-016 -1.59028e-015 -9.93923e-017 -5.96354e-016 -1.59028e-015 -0.865644 0.16582 7.03859 -88.0329 10.2057 -10.5567 0.0015593 -0.00248883 -0.000788628 7.87605e-005 4.10553e-005 1.24965e-005 -3.97569e-016 -7.95139e-016 3.18055e-015 -1.98785e-016 -3.97569e-016 3.18055e-015 -1.98785e-016 0 3.18055e-015 -3.97569e-016 -7.95139e-016 3.18055e-015 0.0129473 0.00231697 -8.70038e-005 9.93923e-017 -7.95139e-016 1.59028e-015 -3.97569e-016 -7.95139e-016 3.18055e-015 0.0163314 0.00303369 -0.000872333 3.97569e-016 7.95139e-016 -3.18055e-015 -3.97569e-016 -7.95139e-016 3.18055e-015 0.0145763 0.00367772 -0.00326275 9.93923e-017 -3.97569e-016 -0 -3.97569e-016 -7.95139e-016 3.18055e-015 -1.98785e-016 -3.97569e-016 3.18055e-015 -1.98785e-016 0 3.18055e-015 3.42485 1.36937 -0.0640303 0.000136572 0.69354 0.00145564 -3.42573 -2.06297 -0.0607933 -3.19502e-024 0 -1.48106e-024 -3.42498 1.36123 0.0639712 -6.769e-005 0.712612 -0.0012277 3.42582 -2.07388 0.0612819 2.55305e-023 0 -2.31416e-026 
0.131227 5.79974 -43.6455 -8.47862e-008 -1.15603e-016 1.0412e-007 2.3325 8.66106 -1.98516 5.05855 17.2267 -4.40611 5.05857 17.2268 -4.40613 -2.12124e-005 -8.71214e-005 1.77723e-005 0.90751 -0.124136 0.00097903 -12.252 1.60625 -32.6023 81.2083 -17.3018 7.87612 -16.0521 -69.1917 -26.9826 25.6498 -4.3118 1.78893 -9.44747e-007 4.06321e-006 6.99265e-006 -3.37989e-006 -2.06832e-006 3.00724e-006 1.50052e-007 -2.33528e-006 -2.76889e-006 -9.44747e-007 4.06321e-006 6.99265e-006 -0.0128047 0.00231725 8.7027e-005 6.36111e-015 -9.54166e-015 -1.59028e-015 -9.44747e-007 4.06321e-006 6.99265e-006 -0.0160329 0.00298276 0.000860451 3.18055e-015 -6.36111e-015 1.59028e-015 -9.44747e-007 4.06321e-006 6.99265e-006 -0.0125987 0.00312037 0.00283183 -9.54166e-015 9.54166e-015 1.59028e-015 -9.44747e-007 4.06321e-006 6.99265e-006 -3.37989e-006 -2.06832e-006 3.00724e-006 1.50052e-007 -2.33528e-006 -2.76889e-006 17.4702 4.41454 42.6778 -80.2051 -24.2098 -8.5497 25.1116 -53.0565 12.8939 6.87303 1.25154 0.312692 8.82781e-032 3.18055e-015 -1.59028e-015 2.64834e-031 4.77083e-015 -3.18055e-015 3.0094e-006 1.38945e-006 3.79e-007 8.82781e-032 3.18055e-015 -1.59028e-015 0.0129358 0.00233019 -8.88671e-005 -3.18055e-015 1.59028e-015 1.59028e-015 8.82781e-032 3.18055e-015 -1.59028e-015 0.0163329 0.00303775 -0.00087 -8.82781e-032 -3.18055e-015 -1.59028e-015 8.82781e-032 3.18055e-015 -1.59028e-015 0.014594 0.00367458 -0.00326061 9.41329e-007 -4.16043e-007 -1.3999e-006 8.82781e-032 3.18055e-015 -1.59028e-015 2.64834e-031 4.77083e-015 -3.18055e-015 3.0094e-006 1.38945e-006 3.79e-007 -3.9299 -48.4326 -13.7491 -175.648 25.7114 170.648 -3.55722 46.1574 -10.6432 6.41867e-008 -1.57604e-008 1.87787e-006 5.59354 -48.2029 14.7285 175.51 25.7412 -170.668 5.11274 45.4884 9.62378 -4.12825e-008 -8.11831e-009 -9.38615e-007 
0.131227 5.79974 -43.6455 0 0 -7.10408e-008 2.33337 8.63053 -1.98667 5.05877 17.1656 -4.40742 5.05879 17.1657 -4.40743 -2.77261e-005 -0.00011675 2.39915e-005 1.80733 -0.240752 0.0361214 -12.252 1.60624 -32.6024 81.2083 -17.3018 7.87613 -16.0522 -69.1917 -26.9826 25.6498 -4.3118 1.78896 3.18055e-015 3.18055e-015 -4.77083e-015 2.00513e-006 9.2056e-007 -2.23001e-006 -3.18055e-015 3.18055e-015 -4.77083e-015 3.18055e-015 3.18055e-015 -4.77083e-015 -0.0128155 0.00232421 8.14057e-005 -9.54166e-015 -3.18055e-015 -1.27222e-014 3.18055e-015 3.18055e-015 -4.77083e-015 -0.0160561 0.00300267 0.000850823 3.18055e-015 6.36111e-015 3.18055e-015 3.18055e-015 3.18055e-015 -4.77083e-015 -0.0125875 0.00312554 0.00281785 3.18055e-015 -1.27222e-014 4.77083e-015 3.18055e-015 3.18055e-015 -4.77083e-015 2.00513e-006 9.2056e-007 -2.23001e-006 -3.18055e-015 3.18055e-015 -4.77083e-015 17.4701 4.41451 42.6778 -80.2288 -24.1098 -8.56117 25.1106 -53.0566 12.8941 6.01827 0.416061 0.41241 -6.36111e-015 0 3.18055e-015 -6.36111e-015 3.18055e-015 1.59028e-015 -1.10102e-006 -2.11579e-006 -2.18815e-006 -6.36111e-015 0 3.18055e-015 0.0129468 0.00231939 -8.01135e-005 -6.51257e-007 -4.14425e-006 6.97247e-006 -6.36111e-015 0 3.18055e-015 0.0163385 0.00303622 -0.000875256 -6.36111e-015 -4.77083e-015 -7.95139e-015 -6.36111e-015 0 3.18055e-015 0.0145793 0.00367954 -0.00327137 1.44747e-006 -2.20647e-006 9.70749e-006 -6.36111e-015 0 3.18055e-015 -6.36111e-015 3.18055e-015 1.59028e-015 -1.10102e-006 -2.11579e-006 -2.18815e-006 -3.9299 -48.4326 -13.7491 -175.648 25.7114 170.648 -3.55722 46.1574 -10.6432 6.41867e-008 -1.57604e-008 1.87787e-006 5.59355 -48.2029 14.7285 175.51 25.7412 -170.668 5.11272 45.4884 9.6238 -4.42481e-007 -4.70032e-006 -3.95704e-007 
0.131227 5.79974 -43.6455 0 0 -9.47211e-008 2.33426 8.60001 -1.98819 5.05899 17.1045 -4.40871 5.05901 17.1046 -4.40872 -2.26021e-005 -8.81435e-005 2.00881e-005 2.70894 -0.357076 0.073172 -12.252 1.60624 -32.6023 81.2083 -17.3018 7.87611 -16.0522 -69.1918 -26.9826 25.6498 -4.31178 1.78895 1.36852e-006 2.45287e-006 -7.8104e-007 1.90833e-014 0 -0 -1.36852e-006 -2.45287e-006 7.8104e-007 1.36852e-006 2.45287e-006 -7.8104e-007 -0.0128272 0.0023226 8.71003e-005 9.54166e-015 3.18055e-015 1.59028e-015 1.36852e-006 2.45287e-006 -7.8104e-007 -0.0160549 0.00298929 0.00085372 1.99876e-006 2.84719e-006 -2.22887e-006 1.36852e-006 2.45287e-006 -7.8104e-007 -0.0126111 0.00311864 0.00282697 -0 0 3.18055e-015 1.36852e-006 2.45287e-006 -7.8104e-007 1.90833e-014 0 -0 -1.36852e-006 -2.45287e-006 7.8104e-007 17.4702 4.41454 42.6778 -80.2538 -24.0096 -8.57314 25.1107 -53.0566 12.894 5.16308 -0.422662 0.49986 -6.36111e-015 -3.18055e-015 -6.36111e-015 -1.02565e-005 1.15192e-005 -7.67011e-006 -2.93687e-006 -3.3017e-007 -3.08491e-007 -6.36111e-015 -3.18055e-015 -6.36111e-015 0.012964 0.00231685 -9.47437e-005 -9.54166e-015 1.59028e-015 -1.59028e-015 -6.36111e-015 -3.18055e-015 -6.36111e-015 0.016328 0.00303919 -0.000874464 -9.54166e-015 0 -0 -6.36111e-015 -3.18055e-015 -6.36111e-015 0.0145851 0.0036787 -0.00326682 -1.59028e-014 4.77083e-015 -6.36111e-015 -6.36111e-015 -3.18055e-015 -6.36111e-015 -1.02565e-005 1.15192e-005 -7.67011e-006 -2.93687e-006 -3.3017e-007 -3.08491e-007 -3.9299 -48.4326 -13.7491 -175.648 25.7114 170.648 -3.55722 46.1574 -10.6432 6.41867e-008 -1.57604e-008 1.87787e-006 5.59355 -48.2029 14.7285 175.51 25.7412 -170.668 5.11272 45.4884 9.6238 -4.42481e-007 -4.70032e-006 -3.95704e-007 
